<svg width="179" height="138" viewBox="0 0 179 138" fill="none" xmlns="http://www.w3.org/2000/svg">
<g clip-path="url(#clip0_1043_6025)">
<path d="M29.0685 40.9541C21.2227 46.1565 14.8285 51.8282 11.2979 60.0034C10.0426 62.9371 9.92491 66.8095 12.7101 69.0391C16.8684 72.4031 21.8112 72.5986 26.8324 70.6038C42.8377 64.2279 55.7439 53.1191 69.3954 43.1055C72.0238 41.1888 74.6128 39.233 77.1627 37.2381C81.3601 33.9524 85.0084 31.3708 86.2637 24.682C89.0097 10.2092 105.133 10.5221 111.998 16.9762C115.136 19.949 118.196 17.4065 120.942 17.0544C140.36 14.3946 157.817 17.4456 171.547 32.7007C175.744 37.3555 178.608 42.6752 179 49.0119C179.628 59.0255 173.43 67.2398 161.622 70.7993C137.025 78.1922 114.116 74.7891 93.5602 58.8691C91.1673 56.9915 86.8914 55.3487 89.7158 50.8895C91.7165 47.7602 96.1101 47.9167 100.111 51.2415C111.605 60.7857 125.218 64.6973 139.771 64.8929C147.225 64.9711 154.6 63.1327 161.543 59.8861C169.232 56.2874 171.115 49.4031 165.819 41.8929C158.64 31.6446 148.088 27.1854 135.849 26.2466C130.435 25.8163 125.139 26.7942 119.804 27.3418C117.725 27.5765 116.313 28.1633 115.999 30.9014C115.018 39.5068 104.937 46.3129 94.3056 41.3452C91.795 40.1718 89.9512 40.3674 87.8329 41.932C77.9473 49.3248 68.1401 56.835 58.1368 64.0323C47.7805 71.4643 37.2672 78.6616 24.4787 81.7908C16.9076 83.6293 10.2387 82.3776 5.64899 76.4711C0.823877 70.2126 -2.4321 63.4456 2.31456 54.801C10.0426 40.8367 22.2035 32.2704 35.5019 24.682C37.5418 23.5085 39.7386 23.3912 41.5824 24.9949C43.4261 26.5595 43.4653 28.4371 42.7592 30.8231C41.0724 36.4167 39.8563 42.1276 38.4833 47.7993C37.6595 51.1242 35.6196 53.1191 32.2852 51.8282C29.4215 50.733 26.7932 48.7772 28.99 44.7874C29.4215 44.0051 29.0685 42.7534 29.0685 40.9541ZM106.349 26.7551C106.113 24.4864 104.505 22.9218 101.131 23C97.8362 23.0782 95.757 24.9558 95.7178 27.733C95.6786 30.784 98.3461 33.4048 101.092 33.3265C103.642 33.2483 106.545 31.3708 106.31 26.7551H106.349Z" fill="#079468"/>
<path d="M74.9658 28.5544C75.0835 30.7058 74.2205 32.2313 72.4552 33.131C70.023 34.4218 67.9439 33.6003 66.0217 31.9575C61.3535 27.9677 56.8422 23.7823 51.9386 20.1446C44.2106 14.3555 36.0118 9.85715 25.6163 10.9524C21.458 11.3827 17.9667 12.5561 14.7499 14.9422C12.5139 16.6242 9.76792 17.5238 7.49266 16.585C3.33443 14.9031 3.17752 11.1871 6.82578 8.2143C20.0066 -2.50339 32.089 -2.42516 49.8203 6.64967C58.3721 11.0306 65.5902 17.4456 72.4159 24.1344C73.7105 25.3861 75.0443 26.6378 74.9266 28.5544H74.9658Z" fill="#079468"/>
<path d="M154.09 42.0102C154.012 45.9218 151.54 47.8384 147.303 47.8384C142.988 47.8384 141.302 44.318 141.223 41.3452C141.105 37.6293 144.126 35.8299 148.127 35.7908C152.168 35.7908 154.129 37.4337 154.129 42.0102H154.09Z" fill="#079468"/>
<path d="M6.82568 92.4694H20.6734C25.1062 92.4694 28.3622 93.6429 30.5197 95.9507C32.6773 98.2194 33.7757 101.114 33.7757 104.556C33.7757 107.998 32.6773 110.776 30.4413 113.005C28.2053 115.235 24.7924 116.291 20.0849 116.291H15.6521V127.165H6.82568V92.4694ZM15.6129 108.389H20.4772C21.811 108.389 22.8702 108.037 23.6155 107.294C24.3609 106.551 24.7139 105.612 24.7139 104.439C24.7139 103.265 24.3609 102.366 23.6155 101.622C22.8702 100.879 21.8895 100.488 20.6734 100.488H15.6521V108.389H15.6129Z" fill="#079468"/>
<path d="M62.0987 112.262C62.0987 113.318 62.0202 114.452 61.8241 115.587H43.2689C44.2104 118.325 46.3288 119.655 49.624 119.655C52.4877 119.655 55.116 118.872 57.4697 117.269L60.7257 122.862C57.3912 125.248 53.5861 126.422 49.2317 126.422C44.6419 126.422 41.1114 125.131 38.6007 122.51C36.1293 119.929 34.874 116.721 34.874 112.888C34.874 109.054 36.1686 105.73 38.7184 103.187C41.3075 100.605 44.6812 99.2755 48.7609 99.2755C52.6053 99.2755 55.8221 100.449 58.3327 102.757C60.8433 105.065 62.0987 108.233 62.0987 112.223V112.262ZM48.7609 105.925C45.8973 105.925 44.0535 107.255 43.1513 109.915H54.1745C53.8214 108.663 53.1938 107.685 52.2523 106.981C51.3108 106.277 50.1339 105.925 48.7609 105.925Z" fill="#079468"/>
<path d="M75.6328 126.617C71.1215 126.617 67.2771 125.131 64.0996 122.158L67.8263 116.565C70.2977 118.716 72.8868 119.811 75.5936 119.811C77.4373 119.811 78.3788 119.264 78.3788 118.168C78.3788 117.582 77.9081 117.073 76.9666 116.721C76.9666 116.721 76.8881 116.721 76.7704 116.682C76.692 116.682 76.5351 116.604 76.3782 116.565C76.2212 116.526 76.0251 116.447 75.829 116.369C75.5936 116.291 75.3582 116.213 75.0444 116.095C74.7305 116.017 74.4167 115.9 74.0637 115.782C72.063 115.078 70.8469 114.609 70.4939 114.452C67.2771 112.966 65.6295 110.619 65.6295 107.412C65.6295 104.986 66.6102 102.992 68.5324 101.505C70.4546 99.9796 73.0437 99.1973 76.3389 99.1973C80.0264 99.1973 83.2432 100.332 86.0284 102.561L82.4586 107.998C80.2618 106.512 78.1827 105.808 76.182 105.808C75.5151 105.808 74.9659 105.964 74.4952 106.238C74.0244 106.512 73.8283 106.864 73.8283 107.255C73.8283 108.077 74.6129 108.702 76.182 109.133C78.7711 109.837 80.811 110.619 82.3017 111.401C85.2438 112.849 86.7345 115.039 86.7345 117.973C86.7345 120.515 85.7146 122.588 83.7139 124.231C81.7132 125.835 79.0065 126.617 75.5544 126.617H75.6328Z" fill="#079468"/>
<path d="M103.289 126.461C99.209 126.461 95.8746 125.209 93.3247 122.667C90.7749 120.124 89.5195 116.878 89.5195 112.888C89.5195 108.898 90.8141 105.651 93.3639 103.109C95.953 100.566 99.3267 99.3146 103.446 99.3146C106.192 99.3146 108.702 99.9796 110.899 101.27C113.096 102.561 114.744 104.439 115.842 106.864L109.212 110.345C107.879 108.116 106.035 107.02 103.642 107.02C101.916 107.02 100.504 107.568 99.3659 108.702C98.2675 109.876 97.7183 111.245 97.7183 112.888C97.7183 114.609 98.2675 116.017 99.4051 117.151C100.504 118.286 101.916 118.833 103.563 118.833C104.74 118.833 105.878 118.52 106.898 117.934C107.918 117.308 108.663 116.526 109.134 115.509L115.763 119.459C114.626 121.611 112.978 123.332 110.742 124.583C108.506 125.835 106.074 126.461 103.328 126.461H103.289Z" fill="#079468"/>
<path d="M173.861 101.779C172.488 101.779 171.351 101.31 170.409 100.41C169.507 99.5102 169.036 98.3759 169.036 96.9677C169.036 95.5595 169.507 94.5034 170.409 93.6037C171.351 92.7041 172.488 92.2738 173.822 92.2738C175.156 92.2738 176.293 92.7041 177.196 93.6037C178.098 94.5034 178.569 95.5986 178.569 96.9677C178.569 98.3367 178.098 99.4711 177.196 100.41C176.293 101.349 175.156 101.779 173.822 101.779H173.861Z" fill="#079468"/>
<path d="M177.98 103.656H169.664V126.461H177.98V103.656Z" fill="#079468"/>
<path d="M151.815 108.077L162.995 97.6718H152.874L145.067 105.182V87.7755C140.478 87.7755 136.751 91.4915 136.751 96.068V102.209C134.672 100.293 132.161 99.3146 129.18 99.3146C125.492 99.3146 122.432 100.605 120.04 103.187C117.686 105.69 116.47 108.898 116.47 112.849C116.47 117.308 118.039 120.906 121.099 123.645C122.825 125.209 125.1 126.148 127.375 126.422C131.102 126.852 134.201 125.952 136.712 123.723V129.707C136.712 134.284 140.438 138 145.028 138V114.413L146.244 113.279L156.954 126.617L166.996 126.774L151.736 108.037L151.815 108.077ZM135.025 117.19C133.848 118.403 132.397 118.99 130.749 118.99C129.101 118.99 127.65 118.403 126.473 117.19C125.335 116.056 124.747 114.609 124.747 112.888C124.747 111.167 125.335 109.837 126.473 108.663C127.571 107.49 129.023 106.864 130.749 106.864C132.475 106.864 133.848 107.49 135.025 108.663C136.202 109.837 136.751 111.245 136.751 112.888C136.751 114.531 136.202 116.056 135.025 117.19Z" fill="#079468"/>
<path d="M130.749 116.056C132.482 116.056 133.887 114.655 133.887 112.927C133.887 111.199 132.482 109.798 130.749 109.798C129.016 109.798 127.611 111.199 127.611 112.927C127.611 114.655 129.016 116.056 130.749 116.056Z" fill="#079468"/>
</g>
<defs>
<clipPath id="clip0_1043_6025">
<rect width="179" height="138" fill="white"/>
</clipPath>
</defs>
</svg>
